<svg id="Capa_1" data-name="Capa 1" xmlns="http://www.w3.org/2000/svg" viewBox="0 0 147.52 102.49"><defs><style>.cls-1,.cls-10,.cls-3,.cls-4,.cls-5,.cls-9{fill:none;stroke-miterlimit:10;}.cls-1,.cls-10{stroke:#000;}.cls-1{stroke-width:0.5px;}.cls-2{fill:blue;}.cls-3{stroke:#f15a24;}.cls-10,.cls-3,.cls-4,.cls-5,.cls-9{stroke-width:0.25px;}.cls-4{stroke:blue;}.cls-5{stroke:#fff;}.cls-6{fill:#fff;}.cls-7{fill:#f15a24;}.cls-8{fill:#39b54a;}.cls-9{stroke:#00004a;}</style></defs><title>graphdiff</title><rect class="cls-1" x="21.64" y="0.47" width="118.57" height="91.57"/><path d="M131.37,87l.17-.16a.27.27,0,0,0,.08-.07c-.08.07,0,0,0,0a1,1,0,0,1,.13-.09l.07,0c.09,0,0,0,0,0l.12,0c.08,0-.07,0,0,0s.05,0,.07,0-.1,0,0,0l.05,0s-.09-.05,0,0l0,0c.07,0,0-.06,0,0a.76.76,0,0,0,.09.09c.05.05,0-.06,0,0l0,0,.06.11.06.12c-.06-.11,0,0,0,.09s.07.2.1.3c.12.48.19,1,.28,1.46a4,4,0,0,0,.34,1.23.74.74,0,0,0,.48.42.85.85,0,0,0,.73-.22.37.37,0,1,0-.53-.53c.11-.09,0,0,0,0s-.05,0-.05,0,.1,0,0,0,.11,0,0,0,.11,0,0,0l0,0c-.07,0,0,0,0,0l-.07-.07s.06.09,0,0l0,0s0-.07-.05-.1,0,.1,0,0,0,0,0-.06l-.05-.14c0-.1,0-.19-.07-.29s-.09-.46-.13-.69a11.32,11.32,0,0,0-.29-1.43,1.71,1.71,0,0,0-.7-1.07c-.59-.3-1.2.14-1.61.54s.18.86.53.53Z"/><path d="M131.88,90.11a4.38,4.38,0,0,0,1.5-1.82,10.32,10.32,0,0,1,.6-1,2.44,2.44,0,0,1,.74-.69.38.38,0,0,0-.38-.65,4.35,4.35,0,0,0-1.52,1.82,10.32,10.32,0,0,1-.6,1,2.37,2.37,0,0,1-.72.69.38.38,0,0,0,.38.65Z"/><path d="M25,3.41c0-.22,0-.44,0-.66a.38.38,0,0,0-.75,0A24.17,24.17,0,0,0,24,5.42a.41.41,0,0,0,.28.37c1.52.4,2.12-1.39,2.3-2.55l-.73-.1c-.1.89-.23,1.78-.37,2.67-.06.44-.13.88-.21,1.31s-.29,1,.2,1.1a.4.4,0,0,0,.42-.17C26,8,26,7.87,25.91,8c.34-.35-.19-.88-.53-.53a.38.38,0,0,0-.09.13s-.09.18,0,.09l.43-.17h0l.23.18,0,0,0,.29c.26-1.59.52-3.18.7-4.78.05-.41-.67-.51-.74-.1-.11.69-.4,2.28-1.38,2l.27.36A24.17,24.17,0,0,1,25,2.75h-.75c0,.22,0,.44,0,.66a.38.38,0,0,0,.75,0Z"/><path d="M21.31.18A11.28,11.28,0,0,1,19.85,2a.39.39,0,0,0-.06.45.37.37,0,0,0,.43.17,2.45,2.45,0,0,0,1-.76A3,3,0,0,0,21.91.77l-.62.17c.06.06-.05-.09,0,0l.06.11.12.25c.1.21.18.42.28.63a1.41,1.41,0,0,0,.3.46.46.46,0,0,0,.43.12.5.5,0,0,0,.32-.34l-.63.16c-.07-.09,0,0,0,0l.06.1.1.16a.36.36,0,0,0,.46.16A.39.39,0,0,0,23,2.3a2.17,2.17,0,0,0-.53-.93l-.08-.09h0l0-.06L22.24,1,22.18.93h0l0-.06,0-.13a.17.17,0,0,1,0-.07h0a.39.39,0,0,0-.38-.38.37.37,0,0,0-.37.38,2,2,0,0,0,.49,1.11L22,2l0,0h0a.86.86,0,0,1,.07.1,1.05,1.05,0,0,1,.12.21s0,0,0,0,0,0,0,.06l0,.11L23,2.21a2.63,2.63,0,0,0-.27-.41.36.36,0,0,0-.37-.09.38.38,0,0,0-.26.26c0,.06.05-.09,0-.05l0,0a.24.24,0,0,1,.09-.08.43.43,0,0,1,.25,0s.12,0,.12.07l0,0c.05.06,0,0,0,0a4.09,4.09,0,0,1-.23-.47A3.42,3.42,0,0,0,21.82.4a.38.38,0,0,0-.63.17l0,.11,0,.06h0A2.12,2.12,0,0,1,21,1c0,.08-.1.16-.15.24l-.06.08-.08.1a2.4,2.4,0,0,1-.4.38s0,0,0,0l-.06,0-.11.07-.11.06s0,0,0,0l-.05,0,.36.63A12.71,12.71,0,0,0,22,.56a.38.38,0,0,0-.13-.51.4.4,0,0,0-.52.13Z"/><path d="M140.56,91.77a6.4,6.4,0,0,1-1.32-1.56.37.37,0,0,0-.46-.16.39.39,0,0,0-.22.45c.13.77.94,1.21,1.54,1.59l-.13-.51a4.32,4.32,0,0,1-1,.81,3.7,3.7,0,0,0-1.07,1.09.38.38,0,0,0,.1.49.38.38,0,0,0,.49,0,8.93,8.93,0,0,1,1.78-1.28.38.38,0,0,0,.07-.59q-.36-.41-.75-.81a5.33,5.33,0,0,0-.78-.72.38.38,0,1,0-.38.65c.08,0,0,0,0,0l.07,0,.18.16.4.41q.38.39.72.78l.08-.59a10.55,10.55,0,0,0-1.93,1.4l.59.45a3,3,0,0,1,.94-.92,4.69,4.69,0,0,0,1.1-1,.38.38,0,0,0-.13-.52,6.52,6.52,0,0,1-.75-.5,2.62,2.62,0,0,1-.29-.28.69.69,0,0,1-.16-.36l-.68.29A6.71,6.71,0,0,0,140,92.3a.39.39,0,0,0,.53,0,.37.37,0,0,0,0-.53Z"/><path d="M28.29,51.52a.38.38,0,0,0,0-.75.38.38,0,0,0,0,.75Z"/><path d="M33.77,46.14a.38.38,0,0,0,0-.75.38.38,0,0,0,0,.75Z"/><path d="M39.73,36.16a.38.38,0,0,0,0-.75.38.38,0,0,0,0,.75Z"/><path d="M52.06,26.57a.38.38,0,0,0,0-.75.38.38,0,0,0,0,.75Z"/><path d="M65.27,36.68h0l-.12,0h0l0,0,0,0h0l-.09.07h0l-.06.07h0a.36.36,0,0,0,0,.11h0s0,.07,0,.1h0v0a.23.23,0,0,0,0,.14.24.24,0,0,0,.07.12.42.42,0,0,0,.12.08.4.4,0,0,0,.15,0h.1a.34.34,0,0,0,.16-.1l.06-.07a.34.34,0,0,0,.05-.19v.06s0,0,0,0l0,.09v0l-.06.08h0l-.08.06h0l-.09,0h0a.22.22,0,0,0,.14,0,.2.2,0,0,0,.12-.08.25.25,0,0,0,.08-.12.32.32,0,0,0,0-.14V37a.42.42,0,0,0-.1-.17l-.07-.06a.45.45,0,0,0-.19,0Z"/><path d="M72.6,49.47a.38.38,0,0,0,0-.75.38.38,0,0,0,0,.75Z"/><path d="M83.25,60.93v0l0,.09v0l-.06.08h0l-.07.06h0l-.09,0h0l-.09,0h0a.28.28,0,0,0,.15,0,.37.37,0,0,0,.12-.07.57.57,0,0,0,.08-.13.32.32,0,0,0,0-.14l0-.1a.32.32,0,0,0-.09-.16l-.08-.06a.32.32,0,0,0-.19,0h0l-.13,0h0l0,0,0,0h0l-.09.07h0l-.05.07h0a.49.49,0,0,0,0,.11h0s0,.07,0,.1h0v0a.32.32,0,0,0,0,.14.25.25,0,0,0,.08.12.2.2,0,0,0,.12.08.35.35,0,0,0,.14,0H83a.37.37,0,0,0,.17-.1l.06-.07a.41.41,0,0,0,0-.19Z"/><path d="M92.48,55.65v.09a.4.4,0,0,0,0,.15.42.42,0,0,0,.08.12.36.36,0,0,0,.12.08.32.32,0,0,0,.14,0l.1,0a.35.35,0,0,0,.17-.09l.06-.08a.41.41,0,0,0,0-.19v-.09a.37.37,0,0,0,0-.15.36.36,0,0,0-.08-.12A.42.42,0,0,0,93,55.3l-.15,0h-.1a.34.34,0,0,0-.16.1l-.06.08a.38.38,0,0,0,0,.19Z"/><path d="M103.5,47.43v-.1a.32.32,0,0,0,0-.14.25.25,0,0,0-.08-.12.38.38,0,0,0-.27-.11H103a.37.37,0,0,0-.17.1l-.06.07a.41.41,0,0,0,0,.19v.1a.32.32,0,0,0,0,.14.25.25,0,0,0,.08.12.2.2,0,0,0,.12.08.35.35,0,0,0,.14,0h.1a.37.37,0,0,0,.17-.1l.06-.07a.41.41,0,0,0,0-.19Z"/><path d="M114.86,35.57a.38.38,0,0,0,0-.75.38.38,0,0,0,0,.75Z"/><path d="M122.4,27.26a.38.38,0,0,0,0-.75.38.38,0,0,0,0,.75Z"/><path d="M133.45,29.8a.38.38,0,0,0,0-.75.38.38,0,0,0,0,.75Z"/><path class="cls-2" d="M82.82,62.82a.38.38,0,0,0,0-.75.38.38,0,0,0,0,.75Z"/><path class="cls-2" d="M82.56,63.71a6.52,6.52,0,0,0-.29,2.05.38.38,0,0,0,.37.37,2.49,2.49,0,0,0,.77,0,.38.38,0,0,0,.27-.46.39.39,0,0,0-.47-.26h0s0,0,0,0H83l-.32,0,.38.38a1.93,1.93,0,0,1,0-.48.66.66,0,0,1,0-.14s0-.12,0,0c0-.08,0-.16,0-.24.06-.32.14-.63.21-1a.38.38,0,0,0-.26-.46.39.39,0,0,0-.46.26Z"/><line class="cls-3" x1="92.85" y1="58.38" x2="92.85" y2="92.04"/><line class="cls-3" x1="99.11" y1="70.97" x2="98.82" y2="70.97"/><line class="cls-4" x1="83.12" y1="69.95" x2="83.17" y2="92.04"/><line class="cls-5" x1="76.52" y1="80.3" x2="76.22" y2="80.4"/><path class="cls-6" d="M146.07,42.76a1.5,1.5,0,0,0,0-3,1.5,1.5,0,0,0,0,3Z"/><path class="cls-6" d="M80.81,72.31A5.44,5.44,0,0,1,84.63,72c.47.15.66-.57.2-.72a6.24,6.24,0,0,0-4.39.43.37.37,0,0,0-.14.51.39.39,0,0,0,.51.14Z"/><path class="cls-6" d="M81.4,74.07a4.68,4.68,0,0,1,3.33-.26.37.37,0,0,0,.2-.72,5.46,5.46,0,0,0-3.91.33.38.38,0,0,0,.38.65Z"/><path class="cls-6" d="M81.41,76.26a10.38,10.38,0,0,0,3.52.11.38.38,0,0,0,0-.75c-.57,0-1.14.06-1.71.08a4.16,4.16,0,0,1-1.61-.17.38.38,0,0,0-.47.27.39.39,0,0,0,.27.46Z"/><path class="cls-6" d="M82.09,78.9a6.49,6.49,0,0,1,2.64-.67.39.39,0,0,0,.38-.38.38.38,0,0,0-.38-.37,6.76,6.76,0,0,0-2.84.7.4.4,0,0,0-.26.46.38.38,0,0,0,.46.26Z"/><path class="cls-6" d="M81.9,81.34c.53-.08,1-.22,1.57-.33A3.62,3.62,0,0,1,84.93,81c.47.12.67-.61.2-.72-1.14-.28-2.31.21-3.43.39a.37.37,0,1,0,.2.72Z"/><path class="cls-6" d="M82.39,84c.38-.12.75-.25,1.14-.36a4.85,4.85,0,0,1,1.11-.22.38.38,0,0,0,0-.75,10.83,10.83,0,0,0-2.45.6.37.37,0,0,0-.26.46.38.38,0,0,0,.46.27Z"/><path class="cls-6" d="M82.09,86.2a3.69,3.69,0,0,1,1.47-.35,3,3,0,0,0,1.56-.44.38.38,0,0,0,.13-.51.37.37,0,0,0-.51-.13,2.7,2.7,0,0,1-1.36.35,4,4,0,0,0-1.67.43.38.38,0,0,0,.38.65Z"/><path class="cls-6" d="M82.91,87.92c0-.07,0,0,0,0l0,0s.08-.09.1-.09l0,0,0,0,0,0,.11-.06c.07,0-.08,0,0,0l0,0,.12,0,.26-.06a7,7,0,0,0,1-.18A.39.39,0,0,0,84.9,87a.37.37,0,0,0-.46-.26,10.11,10.11,0,0,1-1.1.19,1.67,1.67,0,0,0-1.08.66.38.38,0,0,0,.13.52.4.4,0,0,0,.52-.14Z"/><path class="cls-6" d="M82.36,90.35s0,0,0,0l.06,0,.13-.08.25-.13.06,0s0,0,0,0L83,90l.28-.1c.38-.12.77-.21,1.14-.34a.37.37,0,0,0,.26-.46.38.38,0,0,0-.46-.26,7.46,7.46,0,0,0-2.41,1,.37.37,0,0,0,0,.53.4.4,0,0,0,.53,0Z"/><path class="cls-6" d="M91.88,61.39a8.94,8.94,0,0,1,3-.48.38.38,0,0,0,0-.75,9.83,9.83,0,0,0-3.23.5.38.38,0,0,0,.2.73Z"/><path class="cls-6" d="M91.58,63.94c.92-.06,1.81-.4,2.74-.39a.38.38,0,0,0,.38-.37.39.39,0,0,0-.38-.38c-.93,0-1.82.33-2.74.39a.39.39,0,0,0-.37.38.37.37,0,0,0,.37.37Z"/><path class="cls-6" d="M91.29,67.17a19.28,19.28,0,0,1,3.13-.29.38.38,0,0,0,0-.75,19.28,19.28,0,0,0-3.13.29.39.39,0,0,0-.38.38.38.38,0,0,0,.38.37Z"/><path class="cls-6" d="M91.88,71.07a28.36,28.36,0,0,0,3.52-.78.38.38,0,0,0,.26-.46.37.37,0,0,0-.46-.26,30.29,30.29,0,0,1-3.52.78.37.37,0,0,0,.2.72Z"/><path class="cls-6" d="M91.39,74.3a12.94,12.94,0,0,1,3-.48c.48,0,.48-.73,0-.75a13.68,13.68,0,0,0-3.23.51.37.37,0,0,0-.26.46.38.38,0,0,0,.46.26Z"/><path class="cls-6" d="M92.06,77a7.22,7.22,0,0,1,3-.93c.49,0,.49-.73,0-.75a8,8,0,0,0-3.41,1,.39.39,0,0,0-.14.52.37.37,0,0,0,.51.13Z"/><path class="cls-6" d="M91.49,80.56c1.25-.41,2.35-1.2,3.62-1.56a.38.38,0,0,0-.2-.73c-1.28.37-2.37,1.16-3.62,1.57-.46.15-.27.87.2.72Z"/><path class="cls-6" d="M92,83.1c1.41-.3,2.83-.49,4.21-.88a.37.37,0,0,0-.2-.72c-1.38.39-2.8.58-4.2.88-.48.1-.28.83.19.72Z"/><path class="cls-6" d="M92.36,86.3a6.76,6.76,0,0,1,3.13-1,.38.38,0,0,0,0-.75A7.5,7.5,0,0,0,92,85.65a.38.38,0,0,0,.38.65Z"/><path class="cls-6" d="M92.46,88.94a8.1,8.1,0,0,1,3.72-.54.38.38,0,0,0,0-.75,8.81,8.81,0,0,0-4.1.64c-.43.22,0,.86.38.65Z"/><path class="cls-6" d="M91.77,91.09a6.62,6.62,0,0,1,2.84-.54.38.38,0,0,0,0-.75,7.6,7.6,0,0,0-3.22.64.38.38,0,0,0,.38.65Z"/><path class="cls-6" d="M39.51,40c-.93-2.63-1.67-5.32-2.35-8a.37.37,0,0,0-.72.2c.68,2.7,1.42,5.39,2.35,8,.15.45.88.26.72-.2Z"/><path class="cls-7" d="M95.79,55.82a.38.38,0,0,0,0-.75.38.38,0,0,0,0,.75Z"/><path class="cls-7" d="M95.41,56.92a11.15,11.15,0,0,1-.1,1.15,1.6,1.6,0,0,0,.24,1.25.69.69,0,0,0,.82.07.36.36,0,0,0,.13-.51.38.38,0,0,0-.51-.13c-.06,0,.09,0,0,0H96c-.07,0,0,0,0,0h0c.08,0,.1,0,.06,0s.09,0,0,0l0,0s0,0,0,0,0-.06,0-.08,0,.1,0,0,0,0,0,0,0-.07,0-.1,0,.1,0,0v0a.2.2,0,0,1,0-.07,6.51,6.51,0,0,1,.08-1.17,4.32,4.32,0,0,0,0-.5.38.38,0,0,0-.37-.38.39.39,0,0,0-.38.38Z"/><path class="cls-7" d="M98.54,56.53c0,.36,0,.72,0,1.08a4.7,4.7,0,0,1,0,.53v.06h0l0,.13a1,1,0,0,1-.07.25.37.37,0,1,0,.72.2,5.86,5.86,0,0,0,.11-2.25.38.38,0,0,0-.37-.38.39.39,0,0,0-.38.38Z"/><path class="cls-7" d="M97.55,57.77a3.13,3.13,0,0,0,1.36.16,5.35,5.35,0,0,0,1.38-.26.38.38,0,0,0,.26-.46.37.37,0,0,0-.46-.26,5.47,5.47,0,0,1-.58.15l-.15,0h-.27l-.18,0a4.58,4.58,0,0,1-.64,0h-.09s0,0,0,0l-.14,0-.28-.1a.38.38,0,0,0-.2.73Z"/><path class="cls-7" d="M103.11,58.38a27.87,27.87,0,0,0,.08-3,.38.38,0,0,0-.64-.26c-.27.27-.57.53-.86.78a.37.37,0,0,0,0,.53.39.39,0,0,0,.53,0c.29-.25.59-.51.86-.78l-.64-.27a27.87,27.87,0,0,1-.08,3,.38.38,0,0,0,.75,0Z"/><path class="cls-8" d="M82.9,93.21a5.41,5.41,0,0,0-.1,1.84.4.4,0,0,0,.28.36c1.45.57,3.56-.76,4.56.8.16.24.64.26.69-.09.16-1.13,2.39-.31,3.07-.18a1.48,1.48,0,0,0,1.55-.4,4.22,4.22,0,0,0,.56-1.81l-.73-.1s0,0,0,.08c-.23.42.42.8.64.37a1.06,1.06,0,0,0,.16-.45c0-.42-.66-.51-.74-.1s-.11,1.4-.55,1.66S91,95.06,90.51,95c-1-.19-2.71-.4-2.91,1l.69-.09A2.44,2.44,0,0,0,86,94.68a6.83,6.83,0,0,1-2.74,0l.27.36a4.75,4.75,0,0,1,.08-1.64c.16-.46-.57-.65-.73-.2Z"/><path class="cls-8" d="M84.43,102.05a2.17,2.17,0,0,0,1-1.32A10,10,0,0,1,86,99.19l.08-.13c0,.06,0,0,.07-.06h0s0,0,.06,0-.07,0,0,0-.09,0,0,0-.08,0,0,0,0,0,0,0h0l0,0c.07,0,0,0,0,0l.13.12a4.18,4.18,0,0,1,.41.6c.16.27.31.54.45.82a7.06,7.06,0,0,1,.56,1.4l.36-.47c-.71.09-1.43.17-2.15.22a3.65,3.65,0,0,1-1-.08,3.17,3.17,0,0,0-1.06-.11.38.38,0,0,0-.37.38.38.38,0,0,0,.37.37,3.08,3.08,0,0,1,1,.11,3.7,3.7,0,0,0,1,.08c.72,0,1.44-.13,2.15-.22a.39.39,0,0,0,.37-.48,7.18,7.18,0,0,0-.57-1.41,7.7,7.7,0,0,0-1-1.64c-.32-.39-.79-.69-1.26-.36a3,3,0,0,0-.84,1.56,8.35,8.35,0,0,1-.35.92,2,2,0,0,1-.21.35l0,0s-.12.1,0,0l-.17.1a.37.37,0,0,0-.14.51.4.4,0,0,0,.51.14Z"/><path class="cls-8" d="M89,99.25l.06,0c-.1,0,0,0,0,0h.11c-.08,0,0,0,0,0s.16.06,0,0l.2.11.06,0,0,0,.12.1a3.39,3.39,0,0,1,.4.45h0l.06.07.09.13.19.27a11.74,11.74,0,0,0,.73,1,1.1,1.1,0,0,0,.83.49c.51,0,.75-.56.89-1s-.57-.65-.72-.2l-.06.16c0,.1,0-.07,0,0l0,0-.06.12,0,0c0,.06.06,0,0,0l-.06.07s.08,0,0,0,.1,0,0,0h.06s-.07,0,0,0,0,0,0,0,.09,0,0,0l-.07,0c.06,0,0,0,0,0a.67.67,0,0,1-.14-.15l-.08-.08,0-.05c-.06-.08,0,.05,0,0a10.38,10.38,0,0,0-1.47-1.9,1.42,1.42,0,0,0-1.24-.38.38.38,0,0,0,.2.73Z"/><path class="cls-8" d="M90.28,101.82c.46-1.32,1.62-2.31,2-3.69l-.68.09a.53.53,0,0,1,0,.18.38.38,0,0,0,.37.37.38.38,0,0,0,.38-.37,1.33,1.33,0,0,0-.15-.56.38.38,0,0,0-.69.09,5.9,5.9,0,0,1-.92,1.8,8.87,8.87,0,0,0-1,1.89.37.37,0,0,0,.26.46.38.38,0,0,0,.46-.26Z"/><line class="cls-9" x1="22.65" y1="61.03" x2="78.38" y2="61.03"/><line class="cls-5" x1="24.37" y1="55.69" x2="88.94" y2="56.45"/><line class="cls-10" x1="24.37" y1="56.53" x2="90.7" y2="56.07"/><path class="cls-6" d="M28.36,55.38a8.24,8.24,0,0,1,.57,4,19.28,19.28,0,0,0,.17,4.16c.1.47.82.27.72-.2-.55-2.7.53-5.77-.82-8.31-.22-.43-.87,0-.64.38Z"/><path class="cls-6" d="M32,55.16c.69,3.23.39,6.59,1.3,9.78a.38.38,0,0,0,.73-.2c-.91-3.19-.62-6.55-1.31-9.78-.1-.47-.82-.27-.72.2Z"/><path class="cls-6" d="M35.74,54.8A25.86,25.86,0,0,0,36.58,60c.33,1.65.24,3.4.87,5,.17.44.9.25.72-.2-.61-1.53-.53-3.21-.84-4.82a27,27,0,0,1-.84-5.12.38.38,0,0,0-.75,0Z"/><path class="cls-6" d="M39,54.8a51.06,51.06,0,0,0,1.84,12.1c.15.46.87.26.72-.2a49.81,49.81,0,0,1-1.81-11.9c0-.48-.78-.48-.75,0Z"/><path class="cls-6" d="M42.52,54.41a35.49,35.49,0,0,0,.89,6.8c.38,2,.36,4.25,1.08,6.21.17.45.89.25.72-.2-.69-1.89-.67-4-1-6a37.71,37.71,0,0,1-.9-6.84.38.38,0,0,0-.75,0Z"/><path class="cls-6" d="M46.7,55.32c-.1,4.39.8,8.7,1.3,13,0,.48.8.48.75,0-.5-4.34-1.4-8.65-1.3-13a.38.38,0,0,0-.75,0Z"/><path class="cls-6" d="M49.83,54.67c-.08,4.72,0,9.59,1.18,14.18a.38.38,0,0,0,.73-.2c-1.21-4.53-1.24-9.33-1.16-14a.38.38,0,0,0-.75,0Z"/><path class="cls-6" d="M52.83,53.36c0,4.84-.33,10,1.44,14.58.18.45.9.25.73-.2-1.76-4.54-1.42-9.6-1.42-14.38a.38.38,0,0,0-.75,0Z"/><path class="cls-6" d="M56.61,56.36c.08,4.35,0,8.75.93,13,.1.47.82.27.72-.2-.94-4.21-.82-8.54-.9-12.82a.38.38,0,0,0-.75,0Z"/><path class="cls-6" d="M59,54.41c.59,4.86,1.09,9.73,1.56,14.6,0,.48.8.49.75,0-.47-4.87-1-9.74-1.56-14.6-.06-.48-.81-.48-.75,0Z"/><path class="cls-6" d="M63.39,55.71c.34,3.83.42,7.76,1.58,11.45.14.46.87.26.72-.2-1.14-3.63-1.21-7.49-1.55-11.25,0-.48-.79-.48-.75,0Z"/><path class="cls-6" d="M65.87,53.75c-.2,4.57,1.15,9,1.17,13.57a.38.38,0,0,0,.75,0c0-4.55-1.37-9-1.17-13.57,0-.48-.73-.48-.75,0Z"/><path class="cls-6" d="M69.65,54.28c.09,2.38.51,4.73.69,7.11a25.6,25.6,0,0,0,.89,6.16c.15.46.88.26.72-.2a26.88,26.88,0,0,1-.88-6.19c-.18-2.3-.58-4.58-.67-6.88,0-.49-.77-.49-.75,0Z"/><path class="cls-6" d="M74.36,54.11c.8,4.37.51,8.88,1.7,13.18a.37.37,0,0,0,.72-.2c-1.19-4.29-.9-8.81-1.7-13.17-.08-.48-.81-.28-.72.19Z"/><path class="cls-6" d="M79,54.67c0,1.61.13,3.21.13,4.82a.38.38,0,0,0,.75,0c0-1.61-.15-3.21-.13-4.82a.38.38,0,0,0-.75,0Z"/><path class="cls-6" d="M81.8,55a24.54,24.54,0,0,1,.5,3.81c0,.48.77.48.75,0a24.6,24.6,0,0,0-.53-4,.38.38,0,0,0-.46-.26.37.37,0,0,0-.26.46Z"/><path class="cls-6" d="M85.71,54.7A10.2,10.2,0,0,0,86,58.81a.37.37,0,1,0,.72-.2,9.31,9.31,0,0,1-.26-3.71c.11-.47-.62-.67-.72-.2Z"/><path class="cls-6" d="M87.52,54.93A15.82,15.82,0,0,0,88,58.19a.39.39,0,0,0,.38.37c.18,0,.4-.17.37-.37a15.82,15.82,0,0,1-.52-3.26.38.38,0,0,0-.37-.38.39.39,0,0,0-.38.38Z"/><path class="cls-6" d="M89.75,56a6.44,6.44,0,0,0,0,2.55.38.38,0,0,0,.46.26.38.38,0,0,0,.27-.46,5.56,5.56,0,0,1,0-2.15.38.38,0,0,0-.73-.2Z"/><path class="cls-6" d="M24.26,60.8a15.41,15.41,0,0,0,.28,3.1.37.37,0,0,0,.46.26.39.39,0,0,0,.26-.46A14.15,14.15,0,0,1,25,60.8c0-.49-.73-.48-.75,0Z"/><path class="cls-6" d="M25.84,55.29c.16,1.17.18,2.35.39,3.52a.37.37,0,1,0,.72-.2c-.2-1.16-.23-2.35-.39-3.52a.37.37,0,0,0-.46-.26.38.38,0,0,0-.26.46Z"/><path class="cls-7" d="M18.51,57.13a13.58,13.58,0,0,1,4.07.25c.47.1.67-.62.2-.73a14.26,14.26,0,0,0-4.27-.27.38.38,0,0,0-.38.37.38.38,0,0,0,.38.38Z"/><path class="cls-7" d="M1.52,58.16c.39-1.61.08-3.26.22-4.9a4.75,4.75,0,0,1,.38-1.58c0-.1.17-.36.29-.36-.05,0,0,.06.06.07a1.7,1.7,0,0,1,.32.47c.23.42.88,0,.65-.38S2.62,50.3,2,50.7a2.48,2.48,0,0,0-.83,1.58C.71,54.15,1.25,56.09.8,58c-.12.47.61.67.72.2Z"/><path class="cls-7" d="M.38,55.43A5.59,5.59,0,0,0,3.3,55a.38.38,0,0,0,.14-.51.39.39,0,0,0-.52-.14,2.58,2.58,0,0,1-1.16.32c-.46,0-.92,0-1.38,0a.39.39,0,0,0-.38.38.38.38,0,0,0,.38.37Z"/><path class="cls-7" d="M5.07,55.6H4.91a.55.55,0,0,0-.21.12.45.45,0,0,0-.12.21s0,.08,0,.13a0,0,0,0,0,0,0,.21.21,0,0,0,0,.15.28.28,0,0,0,.08.12.24.24,0,0,0,.12.07.23.23,0,0,0,.14,0l.1,0a.4.4,0,0,0,.17-.09l0-.08a.33.33,0,0,0,.06-.19,0,0,0,0,1,0-.05l0,.1s0,0,0,0l0,.09s0,0,0,0l-.06.08h0l-.08.05h0l-.09,0h0l-.1,0h.05a.28.28,0,0,0,.15,0,.27.27,0,0,0,.19-.19.28.28,0,0,0,0-.15l0-.1a.42.42,0,0,0-.09-.16l-.08-.06a.32.32,0,0,0-.19,0Z"/><path class="cls-7" d="M4.58,57.44a4.27,4.27,0,0,0-.08,1.88.36.36,0,0,0,.26.26,3.63,3.63,0,0,0,.57,0,.39.39,0,0,0,.38-.38.38.38,0,0,0-.38-.37H5s-.15,0-.06,0l.26.26a.5.5,0,0,1,0-.12s0-.11,0,0c0-.07,0-.14,0-.21s0-.26,0-.4a1.23,1.23,0,0,0,0-.19s0,0,0,0v-.15c0-.14,0-.28.08-.41a.37.37,0,0,0-.72-.2Z"/><path class="cls-7" d="M7.09,56.94l.07.11,0,.05c0,.09,0,0,0,0s.06.17.08.25a.77.77,0,0,1,0,.15s0,.05,0,0v.07c0,.1,0,.2,0,.3,0,.41,0,.81,0,1.21a.38.38,0,1,0,.75,0c0-.43,0-.85,0-1.28a2.42,2.42,0,0,0-.33-1.26.38.38,0,0,0-.51-.13.39.39,0,0,0-.14.51Z"/><path class="cls-7" d="M6.93,58.29a7.74,7.74,0,0,0,1.92.14.38.38,0,0,0,.38-.37.39.39,0,0,0-.38-.38,5.41,5.41,0,0,1-.9,0l-.21,0-.12,0s-.14,0,0,0l-.44-.07a.37.37,0,0,0-.2.72Z"/><path class="cls-7" d="M10.92,59a7.39,7.39,0,0,1,.26-2.73A.37.37,0,0,0,10.5,56a.48.48,0,0,1-.1.15c-.07.08-.05,0-.12.1s-.27.18-.39.29a.37.37,0,0,0,.53.53l.14-.11.19-.13a1.44,1.44,0,0,0,.4-.45L10.46,56A8.07,8.07,0,0,0,10.17,59a.39.39,0,0,0,.38.38.38.38,0,0,0,.37-.38Z"/><path class="cls-8" d="M3.56,67.64a1.47,1.47,0,0,0,.58-1A10.73,10.73,0,0,0,4.33,65c0-.59.06-1.18.11-1.76a4.28,4.28,0,0,1,.27-1.37l0-.06.08-.12,0,0s0,0,0,0c-.13,0,.1,0,0,0h0a.42.42,0,0,1,.25.09.37.37,0,0,0,.38-.64,1,1,0,0,0-1.21,0A2.19,2.19,0,0,0,3.8,62.4c-.2,1.19-.15,2.4-.31,3.6a3.77,3.77,0,0,1-.14.7.94.94,0,0,1-.1.23c0,.08,0,0,0,0s0,0,0,0a.37.37,0,0,0,.37.64Z"/><path class="cls-8" d="M2.59,65.22h3a.38.38,0,0,0,0-.75h-3a.38.38,0,0,0,0,.75Z"/><path class="cls-8" d="M7,65.49v.39a.26.26,0,0,0,0,.15.24.24,0,0,0,.07.12.42.42,0,0,0,.12.08.4.4,0,0,0,.15,0h.1a.34.34,0,0,0,.16-.1.37.37,0,0,0,.11-.27v-.39a.22.22,0,0,0,0-.14.2.2,0,0,0-.08-.12.25.25,0,0,0-.12-.08.32.32,0,0,0-.14,0h-.1a.42.42,0,0,0-.17.1.41.41,0,0,0-.11.26Z"/><path class="cls-8" d="M7.09,67.26A2,2,0,0,0,7,68.46a.94.94,0,0,0,.25.47.69.69,0,0,0,.64.16,1.36,1.36,0,0,0,.63-.46.44.44,0,0,0,.11-.27A.38.38,0,0,0,8.2,68a.33.33,0,0,0-.26.11,1.54,1.54,0,0,1-.26.25l.08-.06-.16.1.09,0-.1,0,.1,0a.11.11,0,0,1-.08,0l.1,0-.06,0,.08,0a.1.1,0,0,1-.05,0l.07.06-.06-.06.06.08a.54.54,0,0,1-.07-.13l0,.09a.86.86,0,0,1-.06-.23v.1a1.7,1.7,0,0,1,0-.39V68a1.59,1.59,0,0,1,.1-.39l0,.09v0a.38.38,0,0,0,0-.29.34.34,0,0,0-.17-.22.37.37,0,0,0-.29,0,.36.36,0,0,0-.23.17Z"/><path class="cls-8" d="M18.45,61.38a3.9,3.9,0,0,0,1.95.18,15.22,15.22,0,0,1,2-.13.37.37,0,0,0,.37-.37.38.38,0,0,0-.37-.38,13.51,13.51,0,0,0-1.91.12c-.33,0-.65.05-1,.05a3.67,3.67,0,0,1-.38,0l-.2,0-.08,0s-.11,0,0,0a.4.4,0,0,0-.52.14.37.37,0,0,0,.14.51Z"/><path class="cls-8" d="M12,64.84v-.13a.32.32,0,0,0,0-.14.36.36,0,0,0-.08-.12.28.28,0,0,0-.12-.08.21.21,0,0,0-.15,0h-.1a.34.34,0,0,0-.16.1l-.06.07a.32.32,0,0,0,0,.19v.13a.4.4,0,0,0,0,.15.28.28,0,0,0,.08.12.24.24,0,0,0,.12.07.23.23,0,0,0,.14,0l.1,0a.46.46,0,0,0,.17-.09l.06-.08a.41.41,0,0,0,.05-.19Z"/><path class="cls-8" d="M13.52,63.51s0,0,0-.06l0,.09a.05.05,0,0,1,0,0l-.06.08,0,0-.07.06,0,0-.08,0h0l-.1,0,.07,0a.26.26,0,0,0,.15,0,.25.25,0,0,0,.14,0,.24.24,0,0,0,.1-.1.21.21,0,0,0,.07-.12v-.1a.32.32,0,0,0,0-.19L13.68,63a.34.34,0,0,0-.16-.1h-.06l-.14,0-.14,0-.13.05A.39.39,0,0,0,13,63h0l-.06.08h0v0s0,.07,0,.11a.07.07,0,0,0,0,.05.26.26,0,0,0,0,.15.37.37,0,0,0,0,.14l.1.1a.33.33,0,0,0,.13.07h.1a.41.41,0,0,0,.19-.05l.07-.06a.39.39,0,0,0,.1-.16Z"/><path class="cls-8" d="M15.25,62.63l.26-.26a.42.42,0,0,0,.08-.12.4.4,0,0,0,0-.15.32.32,0,0,0,0-.14.25.25,0,0,0-.08-.12l-.08-.06a.3.3,0,0,0-.19-.05h-.1a.39.39,0,0,0-.16.1l-.26.26a.25.25,0,0,0-.08.12.32.32,0,0,0,0,.14.4.4,0,0,0,0,.15.42.42,0,0,0,.08.12l.07.06a.45.45,0,0,0,.19.05l.1,0a.35.35,0,0,0,.17-.09Z"/></svg>